<svg id="Capa_1" enable-background="new 0 0 486.861 486.861" height="512" viewBox="0 0 486.861 486.861" width="512" xmlns="http://www.w3.org/2000/svg"><g><path d="m481 431.5-339.97-339.96c-9.801-9.801-25.646-9.704-35.35 0l-14.14 14.14c-9.688 9.688-9.849 25.501 0 35.35l196.22 196.22c3.64 3.64 9.944 4.196 14.14 0 3.895-3.895 3.9-10.24 0-14.14l-136.472-136.472 21.21-21.21 280.221 280.212c-.01 0-21.22 21.21-21.22 21.21l-80.1-80.1c-4.185-4.185-10.586-3.554-14.141 0-3.9 3.9-3.899 10.25 0 14.14l80.102 80.11c7.944 7.944 20.605 7.685 28.29 0l21.21-21.21c7.943-7.943 7.685-20.604 0-28.29zm-329.715-259.005-45.605-45.605c-1.732-1.732-2.176-4.894 0-7.07l14.14-14.14c2.095-2.095 5.277-1.793 7.07 0l45.606 45.606zm185.36 189.502c0 5.521-4.476 9.996-9.996 9.996-5.521 0-9.996-4.476-9.996-9.996 0-5.521 4.476-9.997 9.996-9.997s9.996 4.476 9.996 9.997zm-284.645-228.997h-42c-5.523 0-10-4.477-10-10s4.477-10 10-10h42c5.523 0 10 4.477 10 10s-4.477 10-10 10zm61-81v-42c0-5.523 4.477-10 10-10s10 4.477 10 10v42c0 5.523-4.477 10-10 10s-10-4.477-10-10zm302.568 49.318c0-5.523 4.478-10 10-10h24.432c5.522 0 10 4.477 10 10s-4.478 10-10 10h-24.432c-5.522 0-10-4.477-10-10zm-379.542-51.15c-3.905-3.905-3.905-10.237 0-14.142s10.237-3.905 14.142 0l29.698 29.698c3.905 3.905 3.905 10.237 0 14.142s-10.237 3.905-14.142 0zm130.108 29.699c-3.905-3.905-3.905-10.237 0-14.142l29.698-29.698c3.905-3.905 10.237-3.905 14.142 0s3.905 10.237 0 14.142l-29.698 29.698c-3.906 3.905-10.237 3.905-14.142 0zm-86.267 86.267c3.905 3.905 3.905 10.237 0 14.142l-29.698 29.698c-3.905 3.905-10.237 3.905-14.142 0s-3.905-10.237 0-14.142l29.698-29.698c3.905-3.905 10.236-3.905 14.142 0zm309.247-104.981 7.549-23.236c1.706-5.252 7.348-8.127 12.601-6.421s8.127 7.348 6.421 12.601l-7.549 23.236c-1.706 5.252-7.348 8.127-12.601 6.421s-8.128-7.349-6.421-12.601zm-61.931-2.987c3.246-4.468 9.5-5.458 13.968-2.212l19.766 14.361c4.468 3.246 5.459 9.5 2.212 13.968-3.246 4.468-9.5 5.458-13.968 2.212l-19.766-14.361c-4.467-3.246-5.458-9.5-2.212-13.968zm80.954 77.143 7.55 23.236c1.707 5.252-1.168 10.894-6.42 12.601-5.253 1.707-10.894-1.168-12.601-6.42l-7.55-23.236c-1.707-5.252 1.168-10.894 6.42-12.601s10.894 1.168 12.601 6.42zm-80.96 9.166c-3.246-4.468-2.255-10.722 2.212-13.968l19.766-14.361c4.468-3.246 10.722-2.256 13.968 2.212s2.255 10.722-2.212 13.968l-19.766 14.361c-4.468 3.246-10.722 2.256-13.968-2.212zm-209.349 173.907-26.903-8.734c-5.252-1.708-8.125-7.351-6.416-12.603 1.708-5.252 7.351-8.125 12.603-6.416l26.903 8.734c5.252 1.708 8.125 7.351 6.416 12.603-1.708 5.252-7.351 8.125-12.603 6.416zm98.683 21.553c-1.708 5.252-7.351 8.125-12.603 6.416l-26.903-8.734c-5.252-1.708-8.125-7.351-6.416-12.603 1.708-5.252 7.351-8.125 12.603-6.416l26.903 8.734c5.252 1.709 8.124 7.351 6.416 12.603zm-38.14-74.843-8.734 26.903c-1.708 5.252-7.351 8.125-12.603 6.416s-8.125-7.351-6.416-12.603l8.734-26.903c1.708-5.252 7.351-8.125 12.603-6.416s8.125 7.351 6.416 12.603zm-27.969 86.08-8.734 26.903c-1.708 5.252-7.351 8.125-12.603 6.416s-8.125-7.351-6.416-12.603l8.734-26.903c1.708-5.252 7.351-8.125 12.603-6.416s8.125 7.35 6.416 12.603z"/></g></svg>