<svg id="Capa_1" enable-background="new 0 0 512 512" height="512" viewBox="0 0 512 512" width="512" xmlns="http://www.w3.org/2000/svg"><g><path d="m420.633 185.843c4.134-94.372-71.543-172.101-164.633-172.101-93.235 0-168.731 77.875-164.635 172.048-55.726 27.769-91.365 84.929-91.365 147.56 0 131.629 147.34 209.665 256 137.201 108.645 72.453 256-5.547 256-137.201 0-64.501-37.252-120.456-91.367-147.507zm-93.534 118.81c-6.616-37.738-26.047-71.289-54.023-95.652 38.935-23.297 85.721-26.48 126.374-10.696-6.113 44.657-32.96 84.052-72.351 106.348zm-71.099 141.086c-33.067-26.883-53.28-67.237-53.592-111.314 36.857 12.519 74.655 11.233 107.184 0-.299 42.23-19.098 83.271-53.592 111.314zm-52.254-132.148c.598-4.368 1.334-8.461 2.353-12.869.009-.041.019-.081.029-.121 7.393-31.855 25.333-59.707 49.919-79.679 27.799 22.616 47.058 55.268 52.195 92.672-32.978 12.803-70.408 13.23-104.496-.003zm52.254-279.849c79.486 0 144.21 64.379 144.79 143.73-47.957-16.529-101.758-10.024-144.731 18.556-15.491-10.289-32.894-18.065-51.688-22.698-5.358-1.32-10.78 1.953-12.103 7.315-1.322 5.362 1.954 10.781 7.316 12.103 14.164 3.492 27.424 9.023 39.501 16.229-29.465 25.648-47.683 59.548-54.064 94.984-.042.23-.081.461-.122.692-38.228-21.639-66.062-60.391-72.354-106.384 3.685-1.426 7.434-2.704 11.209-3.818 5.296-1.564 8.322-7.127 6.758-12.423-1.564-5.297-7.125-8.317-12.423-6.759-2.305.681-4.597 1.435-6.879 2.22.571-79.36 65.298-143.747 144.79-143.747zm-236 299.608c0-52.521 28.53-100.654 73.695-126.15.043.245.085.491.129.736 9.445 52.448 43.446 95.609 88.737 118.177-2.119 48.64 17.19 97.29 56.448 131.536-95.434 57.188-219.009-11.474-219.009-124.299zm252.992 124.299c38.708-33.767 58.594-82.192 56.439-131.532 45.202-22.52 79.282-65.63 88.745-118.181.042-.23.081-.461.122-.692 43.962 24.885 73.702 72.085 73.702 126.106 0 112.856-123.606 181.468-219.008 124.299z"/><path d="m160.67 188.597c5.545 0 10-4.498 10-10 0-6.402-5.892-11.02-11.95-9.8-4.801.975-8.05 5.149-8.05 9.8 0 5.463 4.432 10 10 10z"/></g></svg>