<svg width="10" height="6" viewBox="0 0 10 6" fill="none" xmlns="http://www.w3.org/2000/svg">
<path d="M1.76664 0.741886L4.99997 3.97522L8.2333 0.741886C8.31045 0.664734 8.40205 0.603535 8.50285 0.56178C8.60365 0.520026 8.71169 0.498535 8.8208 0.498535C8.92991 0.498535 9.03795 0.520026 9.13875 0.56178C9.23956 0.603535 9.33115 0.664734 9.4083 0.741886C9.48545 0.819037 9.54665 0.91063 9.58841 1.01143C9.63016 1.11224 9.65165 1.22028 9.65165 1.32939C9.65165 1.43849 9.63016 1.54654 9.58841 1.64734C9.54665 1.74814 9.48545 1.83973 9.4083 1.91689L5.5833 5.74189C5.50621 5.81914 5.41463 5.88043 5.31382 5.92225C5.21301 5.96406 5.10494 5.98559 4.9958 5.98559C4.88666 5.98559 4.77859 5.96406 4.67778 5.92225C4.57697 5.88043 4.4854 5.81914 4.4083 5.74189L0.583303 1.91689C0.50605 1.83979 0.44476 1.74822 0.402942 1.64741C0.361124 1.54659 0.3396 1.43853 0.3396 1.32939C0.3396 1.22025 0.361124 1.11218 0.402942 1.01137C0.44476 0.910554 0.50605 0.818981 0.583303 0.741886C0.908303 0.425219 1.44164 0.416886 1.76664 0.741886Z" fill="#688286"/>
</svg>
