<?xml version="1.0" encoding="iso-8859-1"?>
<!-- Generator: Adobe Illustrator 17.1.0, SVG Export Plug-In . SVG Version: 6.00 Build 0)  -->
<!DOCTYPE svg PUBLIC "-//W3C//DTD SVG 1.1//EN" "http://www.w3.org/Graphics/SVG/1.1/DTD/svg11.dtd">
<svg version="1.1" id="Capa_1" xmlns="http://www.w3.org/2000/svg" xmlns:xlink="http://www.w3.org/1999/xlink" x="0px" y="0px"
	 viewBox="0 0 272.172 272.172" style="enable-background:new 0 0 272.172 272.172;" xml:space="preserve">
<path d="M55,140.086H0v-140h140v55h-31.659C79.117,55.086,55,78.87,55,108.094V140.086z M116,206.086v-8.516
	c0-44.664,37.154-81.484,81.817-81.484h8.516c1.68,0,3.667,0.552,4.667,0.653v-8.653c0-20.987-16.68-38-37.667-38h-65
	c-20.987,0-38.333,17.013-38.333,38v65c0,20.987,17.346,38,38.333,38h8.653C116.885,209.431,116,207.766,116,206.086z
	 M272.169,193.138c-0.048-0.723-0.093-1.448-0.165-2.164c-0.044-0.444-0.108-0.882-0.16-1.323c-0.076-0.636-0.148-1.274-0.242-1.904
	c-0.071-0.474-0.16-0.941-0.24-1.411c-0.101-0.59-0.198-1.18-0.315-1.765c-0.097-0.487-0.211-0.969-0.319-1.452
	c-0.125-0.557-0.246-1.115-0.385-1.667c-0.125-0.496-0.264-0.986-0.4-1.478c-0.146-0.529-0.29-1.058-0.449-1.581
	c-0.152-0.502-0.318-0.998-0.481-1.495c-0.165-0.501-0.33-1.002-0.507-1.498c-0.181-0.507-0.373-1.008-0.566-1.509
	c-0.182-0.473-0.365-0.945-0.557-1.413c-0.211-0.512-0.431-1.019-0.654-1.524c-0.195-0.443-0.393-0.885-0.598-1.323
	c-0.242-0.516-0.492-1.028-0.746-1.536c-0.206-0.413-0.416-0.823-0.63-1.231c-0.275-0.521-0.556-1.038-0.845-1.552
	c-0.213-0.379-0.43-0.756-0.65-1.13c-0.311-0.528-0.627-1.052-0.952-1.571c-0.215-0.343-0.434-0.682-0.654-1.021
	c-0.349-0.536-0.704-1.068-1.068-1.593c-0.211-0.304-0.427-0.604-0.643-0.904c-0.392-0.545-0.789-1.088-1.197-1.62
	c-0.199-0.26-0.404-0.516-0.607-0.773c-0.442-0.559-0.887-1.114-1.346-1.658c-0.177-0.21-0.359-0.415-0.539-0.622
	c-0.5-0.577-1.005-1.151-1.524-1.711c-0.138-0.149-0.282-0.294-0.421-0.442c-0.573-0.606-1.152-1.207-1.748-1.791
	c-0.072-0.071-0.147-0.139-0.219-0.209c-10.77-10.47-25.101-17.541-41.005-18.734c-1.653-0.124-3.317-0.45-5.002-0.45h-8.516
	c-36.451,0-66.817,30.033-66.817,66.484v8.516c0,1.684,0.493,3.348,0.616,5c1.193,15.904,8.225,30.235,18.695,41.005
	c0.071,0.073,0.242,0.149,0.314,0.222c0.584,0.596,1.236,1.175,1.843,1.748c0.147,0.139,0.317,0.282,0.466,0.42
	c0.56,0.52,1.147,1.024,1.724,1.525c0.208,0.179,0.419,0.362,0.628,0.539c0.544,0.459,1.102,0.904,1.66,1.346
	c0.257,0.203,0.515,0.409,0.775,0.608c0.532,0.408,1.074,0.804,1.619,1.196c0.301,0.217,0.602,0.433,0.907,0.645
	c0.524,0.364,1.055,0.717,1.59,1.066c0.34,0.221,0.68,0.441,1.024,0.656c0.518,0.324,1.041,0.64,1.568,0.95
	c0.375,0.22,0.752,0.438,1.132,0.651c0.512,0.288,1.028,0.569,1.549,0.843c0.409,0.215,0.82,0.425,1.234,0.632
	c0.508,0.254,1.019,0.504,1.534,0.745c0.439,0.206,0.882,0.404,1.326,0.6c0.504,0.223,1.01,0.442,1.52,0.653
	c0.468,0.192,0.941,0.375,1.414,0.558c0.501,0.193,1.002,0.385,1.509,0.566c0.495,0.177,0.995,0.341,1.495,0.506
	c0.497,0.164,0.994,0.329,1.496,0.482c0.524,0.159,1.054,0.303,1.583,0.449c0.49,0.135,0.979,0.274,1.474,0.399
	c0.553,0.139,1.112,0.261,1.67,0.385c0.483,0.108,0.964,0.222,1.45,0.319c0.586,0.117,1.179,0.215,1.77,0.316
	c0.468,0.08,0.933,0.169,1.405,0.239c0.632,0.094,1.272,0.166,1.91,0.243c0.44,0.052,0.876,0.116,1.319,0.16
	c0.717,0.071,1.441,0.116,2.164,0.165c0.372,0.025,0.74,0.062,1.113,0.081c1.1,0.055,2.206,0.084,3.32,0.084h8.516
	c6.835,0,13.426-1.039,19.626-2.967c7.233-2.25,13.933-5.71,19.862-10.145c4.235-3.167,8.077-6.832,11.44-10.906
	c2.69-3.26,5.073-6.782,7.105-10.522c2.032-3.741,3.713-7.7,4.999-11.833s2.009-8.441,2.46-12.878
	c0.225-2.219,0.174-4.47,0.174-6.748v-8.516c0-1.113,0.137-2.22,0.083-3.32C272.064,193.877,272.193,193.51,272.169,193.138z"/>
<g>
</g>
<g>
</g>
<g>
</g>
<g>
</g>
<g>
</g>
<g>
</g>
<g>
</g>
<g>
</g>
<g>
</g>
<g>
</g>
<g>
</g>
<g>
</g>
<g>
</g>
<g>
</g>
<g>
</g>
</svg>
