<svg width="12" height="12" viewBox="0 0 12 12" fill="none" xmlns="http://www.w3.org/2000/svg">
<path fill-rule="evenodd" clip-rule="evenodd" d="M9.75 6C9.75 6.19891 9.67098 6.38968 9.53033 6.53033C9.38968 6.67098 9.19891 6.75 9 6.75L1.5 6.75C1.30109 6.75 1.11032 6.67098 0.969669 6.53033C0.829017 6.38968 0.75 6.19891 0.75 6C0.75 5.80109 0.829017 5.61032 0.969669 5.46967C1.11032 5.32902 1.30109 5.25 1.5 5.25L9 5.25C9.19891 5.25 9.38968 5.32902 9.53033 5.46967C9.67098 5.61032 9.75 5.80109 9.75 6Z" fill="white"/>
<path fill-rule="evenodd" clip-rule="evenodd" d="M11.031 5.46897C11.1009 5.53864 11.1563 5.6214 11.1941 5.71252C11.2319 5.80364 11.2514 5.90132 11.2514 5.99997C11.2514 6.09862 11.2319 6.1963 11.1941 6.28742C11.1563 6.37854 11.1009 6.4613 11.031 6.53097L6.53103 11.031C6.3902 11.1718 6.1992 11.2509 6.00003 11.2509C5.80087 11.2509 5.60986 11.1718 5.46903 11.031C5.3282 10.8901 5.24909 10.6991 5.24909 10.5C5.24909 10.3008 5.3282 10.1098 5.46903 9.96897L9.43953 5.99997L5.46903 2.03097C5.3993 1.96124 5.34399 1.87846 5.30625 1.78735C5.26851 1.69624 5.24909 1.59859 5.24909 1.49997C5.24909 1.40136 5.26851 1.3037 5.30625 1.2126C5.34399 1.12149 5.3993 1.0387 5.46903 0.968971C5.53876 0.899239 5.62155 0.843924 5.71266 0.806186C5.80377 0.768447 5.90142 0.749023 6.00003 0.749023C6.09865 0.749023 6.1963 0.768447 6.28741 0.806186C6.37852 0.843924 6.4613 0.899239 6.53103 0.968971L11.031 5.46897Z" fill="white"/>
</svg>
