<svg width="12" height="12" viewBox="0 0 12 12" fill="none" xmlns="http://www.w3.org/2000/svg">
<path d="M7.86595 4.97852H0.804281C0.360797 4.97852 0 5.33934 0 5.78282V10.6729C0 11.1164 0.360797 11.4772 0.804281 11.4772H7.86595C8.30944 11.4772 8.67023 11.1162 8.67023 10.6729V5.78282C8.67023 5.33934 8.30944 4.97852 7.86595 4.97852ZM7.7051 10.512H0.965156V5.94367H7.7051V10.512Z" fill="#9BAFB3"/>
<path d="M11.7812 5.53925C11.6447 5.45031 11.4722 5.43615 11.323 5.50178L7.96118 6.98167L8.35013 7.8651L11.0348 6.68312V9.79459L8.34642 8.63673L7.9647 9.52337L11.3265 10.9711C11.3877 10.9973 11.4527 11.0103 11.5174 11.0103C11.6102 11.0103 11.7027 10.9835 11.7827 10.931C11.9183 10.8418 12 10.6904 12 10.5279V5.9435C12 5.78038 11.9178 5.62839 11.7812 5.53925Z" fill="#9BAFB3"/>
<path d="M1.97852 0.522461C0.896435 0.522461 0.0160522 1.40284 0.0160522 2.48493C0.0160522 3.56702 0.896435 4.4474 1.97852 4.4474C3.06061 4.4474 3.94099 3.56702 3.94099 2.48493C3.94099 1.40282 3.06061 0.522461 1.97852 0.522461ZM1.97852 3.48224C1.42854 3.48224 0.981209 3.03473 0.981209 2.48493C0.981209 1.93495 1.42872 1.48762 1.97852 1.48762C2.52851 1.48762 2.97583 1.93497 2.97583 2.48493C2.97583 3.03489 2.52851 3.48224 1.97852 3.48224Z" fill="#9BAFB3"/>
<path d="M6.45039 0.522461C5.3683 0.522461 4.48792 1.40284 4.48792 2.48493C4.48792 3.56702 5.3683 4.4474 6.45039 4.4474C7.53248 4.4474 8.41287 3.56702 8.41287 2.48493C8.41287 1.40282 7.53265 0.522461 6.45039 0.522461ZM6.45039 3.48224C5.90041 3.48224 5.45307 3.03473 5.45307 2.48493C5.45307 1.93495 5.90059 1.48762 6.45039 1.48762C7.00038 1.48762 7.44771 1.93497 7.44771 2.48493C7.44771 3.03489 7.00038 3.48224 6.45039 3.48224Z" fill="#9BAFB3"/>
</svg>
