<svg width="15" height="17" viewBox="0 0 15 17" fill="none" xmlns="http://www.w3.org/2000/svg">
<path d="M12.0185 6.02051H9.62759V7.43914H12.0185C12.7294 7.43914 13.281 7.80231 13.281 8.11488V14.4055C13.281 14.7181 12.7294 15.0813 12.0185 15.0813H2.98132C2.27035 15.0813 1.71874 14.7181 1.71874 14.4055V8.11511C1.71874 7.80254 2.27035 7.43937 2.98132 7.43937H5.37171V6.02074H2.98132C1.47781 6.02074 0.30011 6.94073 0.30011 8.11511V14.4058C0.30011 15.5804 1.47781 16.5002 2.98132 16.5002H12.0187C13.522 16.5002 14.6999 15.5802 14.6999 14.4058V8.11511C14.6997 6.94049 13.522 6.02051 12.0185 6.02051Z" fill="white"/>
<path d="M5.40077 4.03593C5.58236 4.03593 5.76371 3.96666 5.90226 3.8281L6.79032 2.94004V6.02036V7.43898V10.1566C6.79032 10.5484 7.10786 10.8659 7.49963 10.8659C7.89141 10.8659 8.20895 10.5484 8.20895 10.1566V7.43898V6.02036V2.89204L9.14501 3.8281C9.28356 3.96666 9.46514 4.03593 9.64649 4.03593C9.82784 4.03593 10.0094 3.96666 10.148 3.8281C10.4251 3.55123 10.4251 3.102 10.148 2.82513L8.0302 0.707356C7.89165 0.568803 7.7103 0.5 7.52895 0.5C7.52706 0.5 7.52541 0.5 7.52352 0.5C7.52162 0.5 7.51997 0.5 7.51808 0.5C7.33673 0.5 7.15538 0.568803 7.01683 0.707356L4.89905 2.82513C4.62195 3.102 4.62195 3.55123 4.89905 3.8281C5.03784 3.96666 5.21919 4.03593 5.40077 4.03593Z" fill="white"/>
</svg>
