<svg width="16" height="16" viewBox="0 0 16 16" fill="none" xmlns="http://www.w3.org/2000/svg">
<path d="M1.77778 2.66667C1.77778 2.43092 1.87143 2.20483 2.03813 2.03813C2.20483 1.87143 2.43092 1.77778 2.66667 1.77778H4.44444C4.68019 1.77778 4.90628 1.68413 5.07298 1.51743C5.23968 1.35073 5.33333 1.12464 5.33333 0.888889C5.33333 0.653141 5.23968 0.427048 5.07298 0.260349C4.90628 0.0936505 4.68019 0 4.44444 0H2.66667C1.95942 0 1.28115 0.280952 0.781049 0.781049C0.280952 1.28115 0 1.95942 0 2.66667V4.44444C0 4.68019 0.0936505 4.90628 0.260349 5.07298C0.427048 5.23968 0.653141 5.33333 0.888889 5.33333C1.12464 5.33333 1.35073 5.23968 1.51743 5.07298C1.68413 4.90628 1.77778 4.68019 1.77778 4.44444V2.66667Z" fill="#9BAFB3"/>
<path d="M1.77778 13.3332C1.77778 13.5689 1.87143 13.795 2.03813 13.9617C2.20483 14.1284 2.43092 14.2221 2.66667 14.2221H4.44444C4.68019 14.2221 4.90628 14.3157 5.07298 14.4824C5.23968 14.6491 5.33333 14.8752 5.33333 15.1109C5.33333 15.3467 5.23968 15.5728 5.07298 15.7395C4.90628 15.9062 4.68019 15.9998 4.44444 15.9998H2.66667C1.95942 15.9998 1.28115 15.7189 0.781049 15.2188C0.280952 14.7187 0 14.0404 0 13.3332V11.5554C0 11.3196 0.0936505 11.0936 0.260349 10.9269C0.427048 10.7602 0.653141 10.6665 0.888889 10.6665C1.12464 10.6665 1.35073 10.7602 1.51743 10.9269C1.68413 11.0936 1.77778 11.3196 1.77778 11.5554V13.3332Z" fill="#9BAFB3"/>
<path d="M13.3333 1.77778C13.5691 1.77778 13.7952 1.87143 13.9619 2.03813C14.1286 2.20483 14.2222 2.43092 14.2222 2.66667V4.44444C14.2222 4.68019 14.3159 4.90628 14.4826 5.07298C14.6493 5.23968 14.8754 5.33333 15.1111 5.33333C15.3468 5.33333 15.5729 5.23968 15.7396 5.07298C15.9063 4.90628 16 4.68019 16 4.44444V2.66667C16 1.95942 15.719 1.28115 15.2189 0.781049C14.7188 0.280952 14.0406 0 13.3333 0H11.5555C11.3198 0 11.0937 0.0936505 10.927 0.260349C10.7603 0.427048 10.6667 0.653141 10.6667 0.888889C10.6667 1.12464 10.7603 1.35073 10.927 1.51743C11.0937 1.68413 11.3198 1.77778 11.5555 1.77778H13.3333Z" fill="#9BAFB3"/>
<path d="M14.2222 13.3332C14.2222 13.5689 14.1286 13.795 13.9619 13.9617C13.7952 14.1284 13.5691 14.2221 13.3333 14.2221H11.5555C11.3198 14.2221 11.0937 14.3157 10.927 14.4824C10.7603 14.6491 10.6667 14.8752 10.6667 15.1109C10.6667 15.3467 10.7603 15.5728 10.927 15.7395C11.0937 15.9062 11.3198 15.9998 11.5555 15.9998H13.3333C14.0406 15.9998 14.7188 15.7189 15.2189 15.2188C15.719 14.7187 16 14.0404 16 13.3332V11.5554C16 11.3196 15.9063 11.0936 15.7396 10.9269C15.5729 10.7602 15.3468 10.6665 15.1111 10.6665C14.8754 10.6665 14.6493 10.7602 14.4826 10.9269C14.3159 11.0936 14.2222 11.3196 14.2222 11.5554V13.3332Z" fill="#9BAFB3"/>
</svg>
