<svg width="141" height="34" viewBox="0 0 141 34" fill="none" xmlns="http://www.w3.org/2000/svg">
<g clip-path="url(#clip0)">
<path d="M140.782 0.279785H0.217957V33.6342H140.782V0.279785Z" stroke="#FFFCC6" stroke-width="2"/>
<path d="M19.679 13.815C19.6136 13.9226 19.5264 14.0087 19.461 14.0732C19.3956 14.1378 19.2867 14.1593 19.1777 14.1593C19.0688 14.1593 18.9598 14.1378 18.829 14.0732C18.6983 14.0087 18.5675 13.9226 18.415 13.8365C18.2624 13.7505 18.0881 13.6859 17.8919 13.6213C17.6958 13.5568 17.4561 13.5138 17.2164 13.5138C16.7805 13.5138 16.4536 13.5998 16.2357 13.7935C16.0178 13.9872 15.9088 14.2239 15.9088 14.5467C15.9088 14.7403 15.9742 14.9125 16.1049 15.0416C16.2357 15.1707 16.41 15.2998 16.6062 15.3859C16.8241 15.472 17.0638 15.5796 17.3253 15.6441C17.6086 15.7302 17.8701 15.8163 18.1535 15.9024C18.4368 15.9884 18.7201 16.1176 18.9816 16.2467C19.2649 16.3758 19.5046 16.5479 19.7007 16.7631C19.9187 16.9783 20.093 17.215 20.2238 17.5163C20.3545 17.8176 20.4199 18.1619 20.4199 18.5922C20.4199 19.0657 20.3327 19.496 20.1802 19.8834C20.0276 20.2922 19.7879 20.6365 19.461 20.9378C19.1559 21.2391 18.7637 21.4758 18.3278 21.6479C17.8701 21.8201 17.3689 21.9062 16.7805 21.9062C16.4536 21.9062 16.1485 21.8846 15.8216 21.8201C15.4947 21.7555 15.1896 21.6694 14.8627 21.5619C14.5576 21.4327 14.2743 21.3036 13.991 21.1315C13.7295 20.9808 13.4898 20.7872 13.2936 20.5935L13.991 19.496C14.0564 19.41 14.1218 19.3454 14.2089 19.3024C14.2961 19.2378 14.4051 19.2163 14.514 19.2163C14.6448 19.2163 14.7973 19.2593 14.9281 19.3454C15.0807 19.4315 15.2332 19.5391 15.4075 19.6251C15.5819 19.7327 15.7998 19.8188 16.0178 19.9049C16.2575 19.991 16.519 20.034 16.8459 20.034C17.2817 20.034 17.6086 19.9479 17.8484 19.7543C18.0881 19.5606 18.197 19.2593 18.197 18.872C18.197 18.6353 18.1317 18.4416 18.0009 18.291C17.8701 18.1403 17.6958 18.0327 17.4779 17.9251C17.2599 17.8391 17.0202 17.753 16.7587 17.6669C16.4972 17.6024 16.2139 17.5163 15.9306 17.4302C15.6473 17.3441 15.364 17.2365 15.1025 17.1074C14.8409 16.9783 14.6012 16.8062 14.3833 16.591C14.1654 16.3758 14.0128 16.1176 13.882 15.7948C13.7513 15.472 13.6859 15.0846 13.6859 14.6112C13.6859 14.2454 13.7731 13.8581 13.9256 13.5138C14.0782 13.1479 14.2961 12.8467 14.6012 12.5669C14.9063 12.2872 15.255 12.072 15.6909 11.8998C16.1267 11.7277 16.628 11.6416 17.1728 11.6416C17.4779 11.6416 17.783 11.6631 18.0881 11.7277C18.3932 11.7707 18.6765 11.8353 18.938 11.9429C19.1995 12.0289 19.4392 12.1365 19.679 12.2872C19.9187 12.4163 20.1148 12.5669 20.2892 12.7176L19.679 13.815ZM30.4882 13.6213H27.6334V21.7986H25.2797V13.6213H22.4249V11.7707H30.51V13.6213H30.4882ZM37.3094 19.9695C37.6363 19.9695 37.8978 19.9264 38.1593 19.8188C38.4208 19.7112 38.617 19.5606 38.7913 19.3669C38.9657 19.1732 39.0964 18.9365 39.1836 18.6568C39.2708 18.377 39.3143 18.0543 39.3143 17.71V11.7707H41.668V17.71C41.668 18.334 41.559 18.8935 41.3629 19.41C41.1667 19.9264 40.8834 20.3568 40.4912 20.7441C40.1207 21.11 39.663 21.4112 39.1182 21.6049C38.5734 21.8201 37.9632 21.9062 37.2876 21.9062C36.612 21.9062 36.0018 21.7986 35.457 21.6049C34.9122 21.3897 34.4545 21.11 34.0841 20.7441C33.7136 20.3783 33.4085 19.9264 33.2123 19.41C33.0162 18.8935 32.9072 18.334 32.9072 17.71V11.7707H35.3045V17.71C35.3045 18.0543 35.348 18.377 35.4352 18.6568C35.5224 18.9365 35.6531 19.1732 35.8275 19.3669C36.0018 19.5606 36.198 19.7112 36.4595 19.8188C36.721 19.9264 37.0043 19.9695 37.3094 19.9695ZM54.1335 16.7846C54.1335 17.5163 54.0028 18.1834 53.7412 18.7859C53.4797 19.3884 53.131 19.9264 52.6734 20.3783C52.2157 20.8302 51.6491 21.1745 51.0171 21.4327C50.3633 21.691 49.6442 21.7986 48.8596 21.7986H44.9151V11.7707H48.8596C49.6442 11.7707 50.3633 11.8998 51.0171 12.1581C51.6709 12.4163 52.2157 12.7606 52.6734 13.2125C53.131 13.6644 53.4797 14.1808 53.7412 14.8049C54.0028 15.4074 54.1335 16.0745 54.1335 16.7846ZM51.7145 16.7846C51.7145 16.2897 51.6491 15.8378 51.5184 15.4505C51.3876 15.0631 51.1915 14.7188 50.9518 14.4391C50.712 14.1593 50.4069 13.9441 50.0582 13.7935C49.7096 13.6429 49.2955 13.5568 48.8596 13.5568H47.2905V20.0125H48.8596C49.3173 20.0125 49.7096 19.9479 50.0582 19.7973C50.4069 19.6467 50.712 19.4315 50.9518 19.1517C51.1915 18.872 51.3876 18.5277 51.5184 18.1403C51.6491 17.753 51.7145 17.2796 51.7145 16.7846ZM59.2984 21.7986H56.923V11.7707H59.2984V21.7986ZM72.6139 16.7846C72.6139 17.5163 72.4831 18.1834 72.2216 18.8074C71.9601 19.4315 71.6114 19.9694 71.1538 20.4429C70.6961 20.8948 70.1295 21.2606 69.4975 21.5188C68.8437 21.777 68.1245 21.9062 67.34 21.9062C66.5555 21.9062 65.8363 21.777 65.1825 21.5188C64.5287 21.2606 63.9839 20.8948 63.5045 20.4429C63.0468 19.9694 62.6763 19.4315 62.4366 18.8074C62.1751 18.1834 62.0661 17.5163 62.0661 16.7846C62.0661 16.053 62.1969 15.3859 62.4366 14.7619C62.6981 14.1378 63.0468 13.5998 63.5045 13.1264C63.9621 12.6745 64.5287 12.3087 65.1825 12.0505C65.8363 11.7922 66.5555 11.6631 67.34 11.6631C68.1245 11.6631 68.8437 11.7922 69.4975 12.072C70.1513 12.3302 70.6961 12.696 71.1538 13.1479C71.6114 13.5998 71.9601 14.1593 72.2216 14.7834C72.4831 15.3859 72.6139 16.0745 72.6139 16.7846ZM70.1949 16.7846C70.1949 16.2897 70.1295 15.8378 69.9987 15.4505C69.868 15.0416 69.6718 14.7188 69.4321 14.4391C69.1924 14.1593 68.8873 13.9441 68.5386 13.815C68.1899 13.6644 67.7759 13.5998 67.34 13.5998C66.8824 13.5998 66.4683 13.6644 66.1196 13.815C65.7709 13.9657 65.4658 14.1808 65.2261 14.4391C64.9864 14.7188 64.7902 15.0416 64.6595 15.4505C64.5287 15.8378 64.4633 16.2897 64.4633 16.7846C64.4633 17.2796 64.5287 17.7315 64.6595 18.1403C64.7902 18.5277 64.9646 18.872 65.2261 19.1517C65.4658 19.4315 65.7709 19.6467 66.1196 19.7758C66.4683 19.9264 66.8824 19.991 67.34 19.991C67.7977 19.991 68.1899 19.9264 68.5386 19.7758C68.8873 19.6251 69.1924 19.41 69.4321 19.1517C69.6718 18.872 69.868 18.5492 69.9987 18.1403C70.1295 17.7315 70.1949 17.2796 70.1949 16.7846Z" fill="#FFFCC6"/>
<path d="M114.74 21.0024C114.74 20.8733 114.761 20.7657 114.805 20.6581C114.849 20.5505 114.914 20.4644 115.001 20.3783C115.088 20.2923 115.175 20.2277 115.284 20.1847C115.393 20.1416 115.524 20.1201 115.655 20.1201C115.786 20.1201 115.895 20.1416 116.025 20.1847C116.134 20.2277 116.243 20.2923 116.309 20.3783C116.396 20.4644 116.461 20.5505 116.505 20.6581C116.548 20.7657 116.57 20.8733 116.57 21.0024C116.57 21.1315 116.548 21.2391 116.505 21.3467C116.461 21.4543 116.396 21.5404 116.309 21.6264C116.221 21.7125 116.134 21.7771 116.025 21.8201C115.916 21.8632 115.786 21.8847 115.655 21.8847C115.524 21.8847 115.393 21.8632 115.284 21.8201C115.175 21.7771 115.066 21.7125 115.001 21.6264C114.914 21.5404 114.849 21.4543 114.805 21.3467C114.761 21.2391 114.74 21.11 114.74 21.0024ZM120.166 16.4404V21.7986H118.553V16.4404H120.166ZM120.34 14.9771C120.34 15.1062 120.319 15.2353 120.253 15.3429C120.21 15.4505 120.122 15.5581 120.035 15.6442C119.948 15.7302 119.839 15.7948 119.708 15.8378C119.599 15.8809 119.469 15.9024 119.316 15.9024C119.185 15.9024 119.055 15.8809 118.946 15.8378C118.837 15.7948 118.728 15.7087 118.64 15.6442C118.553 15.5581 118.488 15.4505 118.423 15.3429C118.379 15.2353 118.357 15.1062 118.357 14.9771C118.357 14.848 118.379 14.7188 118.423 14.6113C118.466 14.5037 118.553 14.3961 118.64 14.31C118.728 14.2239 118.837 14.1594 118.946 14.1163C119.055 14.0733 119.185 14.0518 119.316 14.0518C119.447 14.0518 119.578 14.0733 119.708 14.1163C119.839 14.1594 119.926 14.2239 120.035 14.31C120.122 14.3961 120.188 14.5037 120.253 14.6113C120.319 14.7188 120.34 14.848 120.34 14.9771ZM124.851 16.3758C125.266 16.3758 125.636 16.4404 125.985 16.5695C126.333 16.6986 126.617 16.8707 126.856 17.1075C127.096 17.3442 127.292 17.6239 127.423 17.9682C127.554 18.3125 127.619 18.6783 127.619 19.1087C127.619 19.5391 127.554 19.9264 127.423 20.2707C127.292 20.615 127.096 20.8948 126.856 21.153C126.617 21.3897 126.333 21.5834 125.985 21.7125C125.636 21.8416 125.266 21.9062 124.851 21.9062C124.437 21.9062 124.067 21.8416 123.718 21.7125C123.37 21.5834 123.086 21.3897 122.847 21.153C122.607 20.9163 122.411 20.615 122.28 20.2707C122.149 19.9264 122.084 19.5391 122.084 19.1087C122.084 18.6783 122.149 18.3125 122.28 17.9682C122.411 17.6239 122.607 17.3442 122.847 17.1075C123.086 16.8707 123.391 16.6771 123.718 16.5695C124.045 16.4404 124.437 16.3758 124.851 16.3758ZM124.851 20.7011C125.222 20.7011 125.505 20.572 125.68 20.3138C125.854 20.0556 125.941 19.6467 125.941 19.1302C125.941 18.5923 125.854 18.2049 125.68 17.9467C125.505 17.6885 125.222 17.5594 124.851 17.5594C124.459 17.5594 124.198 17.6885 124.002 17.9467C123.827 18.2049 123.74 18.5923 123.74 19.1302C123.74 19.6682 123.827 20.0556 124.002 20.3138C124.176 20.572 124.459 20.7011 124.851 20.7011Z" fill="#FFFCC6"/>
<path d="M101.991 8.2417H84.5565V25.6721H101.991V8.2417Z" stroke="#FFFCC6" stroke-width="1.5"/>
<path d="M79.3262 16.6988C79.9364 16.6988 80.3722 16.5482 80.6555 16.2685C80.9171 15.9887 81.0696 15.5799 81.0696 15.0634C81.0696 14.8267 81.026 14.633 80.9606 14.4394C80.8953 14.2457 80.7863 14.095 80.6337 13.9659C80.503 13.8368 80.3069 13.7292 80.0889 13.6431C79.871 13.5786 79.6095 13.5356 79.3262 13.5356H78.1058V16.7204H79.3262V16.6988ZM79.3262 11.771C80.0453 11.771 80.6555 11.8571 81.1568 12.0292C81.6798 12.2014 82.0939 12.4166 82.4208 12.7178C82.7477 13.0191 83.0092 13.3634 83.1617 13.7507C83.3143 14.1596 83.4014 14.59 83.4014 15.0419C83.4014 15.5368 83.3143 16.0102 83.1617 16.4191C83.0092 16.828 82.7477 17.1938 82.4208 17.495C82.0939 17.7963 81.658 18.033 81.135 18.2052C80.6337 18.3773 80.0235 18.4634 79.3044 18.4634H78.084V21.8204H75.7303V11.771H79.3262ZM88.3702 21.7988H85.9948V11.771H88.3702V21.7988ZM100.596 11.771V21.7988H99.3756C99.2013 21.7988 99.0487 21.7773 98.918 21.7128C98.7872 21.6482 98.6783 21.5621 98.5475 21.4115L93.7531 15.4292C93.7749 15.6014 93.7749 15.7735 93.7966 15.9457C93.7966 16.1178 93.8184 16.2685 93.8184 16.4191V21.7988H91.7481V11.771H92.9903C93.0993 11.771 93.1864 11.771 93.2518 11.7925C93.3172 11.7925 93.3826 11.814 93.448 11.8571C93.5133 11.8786 93.5569 11.9216 93.6005 11.9647C93.6441 12.0077 93.7095 12.0723 93.7749 12.1583L98.6129 18.1837C98.5911 17.99 98.5693 17.7963 98.5693 17.6242C98.5693 17.4305 98.5475 17.2583 98.5475 17.1077V11.771H100.596ZM106.306 15.8381H106.676C107.025 15.8381 107.286 15.7305 107.439 15.5153L109.727 12.2444C109.858 12.0723 110.011 11.9431 110.163 11.8786C110.316 11.814 110.512 11.771 110.752 11.771H112.8L109.793 15.8166C109.575 16.0963 109.357 16.29 109.095 16.4191C109.27 16.4837 109.422 16.5697 109.575 16.6773C109.727 16.7849 109.858 16.9356 109.989 17.1292L113.062 21.7773H110.948C110.817 21.7773 110.686 21.7773 110.599 21.7558C110.512 21.7343 110.425 21.7128 110.359 21.6697C110.294 21.6267 110.228 21.5837 110.185 21.5406C110.141 21.4761 110.076 21.433 110.032 21.3469L107.722 17.8609C107.635 17.7318 107.526 17.6457 107.395 17.6026C107.265 17.5381 107.09 17.5166 106.872 17.5166H106.306V21.7773H103.952V11.771H106.306V15.8381Z" fill="#FC55C0"/>
</g>
<defs>
<clipPath id="clip0">
<rect width="141" height="34" fill="white"/>
</clipPath>
</defs>
</svg>
