<svg width="12" height="12" viewBox="0 0 12 12" fill="none" xmlns="http://www.w3.org/2000/svg">
<path d="M11.9488 7.66111C10.8975 5.61115 8.60938 3.75 6.00048 3.75C3.37327 3.75 1.09182 5.63384 0.0521328 7.66111C-0.0167266 7.79538 -0.0167266 7.95462 0.0521328 8.08891C1.10347 10.1389 3.39158 12 6.00048 12C8.95454 12 11.132 9.68152 11.9488 8.08889C12.0177 7.95462 12.0177 7.79538 11.9488 7.66111ZM6.00048 11.0625C3.87291 11.0625 2.08702 9.64905 1.00932 7.875C2.07509 6.12059 3.85529 4.6875 6.00048 4.6875C8.1365 4.6875 9.91998 6.11098 10.9916 7.875C9.90896 9.65714 8.11592 11.0625 6.00048 11.0625ZM0.148203 2.60559C0.321406 2.4132 0.61782 2.39768 0.810219 2.57091L1.85422 3.51091C2.04659 3.68416 2.06213 3.98053 1.88891 4.17293C1.71568 4.36535 1.41927 4.38082 1.22689 4.20762L0.182891 3.26759C-0.00948439 3.09438 -0.0250234 2.79799 0.148203 2.60559ZM5.53173 2.34375V0.46875C5.53173 0.209883 5.74159 0 6.00048 0C6.25937 0 6.46923 0.209883 6.46923 0.46875V2.34375C6.46923 2.60262 6.25937 2.8125 6.00048 2.8125C5.74159 2.8125 5.53173 2.60262 5.53173 2.34375ZM2.55985 1.29973C2.45455 1.06322 2.56091 0.786141 2.79741 0.680836C3.03395 0.575531 3.311 0.681891 3.41631 0.918398L4.13319 2.52855C4.23849 2.76504 4.13213 3.04214 3.89563 3.14745C3.6598 3.25242 3.38239 3.14712 3.27673 2.90988L2.55985 1.29973ZM10.112 4.17293C9.93882 3.98055 9.95434 3.68416 10.1467 3.51091L11.1907 2.57091C11.3831 2.39768 11.6795 2.4132 11.8528 2.60559C12.026 2.79797 12.0105 3.09436 11.8181 3.26759L10.7741 4.20762C10.5816 4.38087 10.2853 4.36528 10.112 4.17293ZM7.86774 2.52855L8.58463 0.918398C8.68993 0.681891 8.96701 0.575531 9.20352 0.680836C9.44002 0.786141 9.54638 1.06322 9.44108 1.29973L8.7242 2.90986C8.61842 3.14745 8.34076 3.25226 8.10531 3.14745C7.86882 3.04214 7.76246 2.76506 7.86774 2.52855ZM6.00048 5.57227C4.73075 5.57227 3.69774 6.60527 3.69774 7.875C3.69774 9.14473 4.73075 10.1777 6.00048 10.1777C7.2702 10.1777 8.30321 9.14473 8.30321 7.875C8.30321 6.60527 7.2702 5.57227 6.00048 5.57227ZM6.00048 9.24023C5.24769 9.24023 4.63524 8.62779 4.63524 7.875C4.63524 7.12221 5.24769 6.50977 6.00048 6.50977C6.75327 6.50977 7.36571 7.12221 7.36571 7.875C7.36571 8.62779 6.75327 9.24023 6.00048 9.24023Z" fill="#9BAFB3"/>
</svg>
