<svg width="50" height="48" viewBox="0 0 50 48" fill="none" xmlns="http://www.w3.org/2000/svg">
<path d="M48.729 22.3343C49.8814 21.2108 50.2885 19.5621 49.791 18.0313C49.2936 16.5006 47.9953 15.4059 46.4026 15.1744L34.2497 13.4085C34.2275 13.4053 34.2084 13.3913 34.1986 13.3713L28.764 2.35926C28.0519 0.915895 26.6094 0.019043 24.9997 0.019043C23.39 0.019043 21.9478 0.915895 21.2356 2.35926L15.8008 13.3713C15.791 13.3913 15.7719 13.4051 15.7497 13.4085L3.59709 15.1744C2.00437 15.4059 0.706014 16.5006 0.208604 18.0313C-0.288806 19.5621 0.118208 21.2108 1.27065 22.3343L10.0643 30.9062C10.0804 30.9218 10.0877 30.9443 10.0838 30.9663L8.00793 43.07C7.73583 44.6563 8.37594 46.2295 9.67797 47.1755C10.9802 48.1219 12.6741 48.2439 14.0987 47.4951L24.9683 41.7806C24.988 41.77 25.0119 41.7703 25.0316 41.7806L35.9012 47.4951C36.5209 47.8209 37.1913 47.9817 37.8585 47.9817C38.7251 47.9817 39.5861 47.71 40.3217 47.1755C41.6237 46.2295 42.2636 44.6563 41.9917 43.0698L39.9158 30.9663C39.9119 30.9443 39.9195 30.9218 39.9353 30.9062L48.729 22.3343ZM35.8452 31.6642L37.9211 43.7677C37.9266 43.7998 37.9282 43.8095 37.894 43.8342C37.8599 43.859 37.8511 43.8544 37.8225 43.8393L26.9526 38.1246C25.7298 37.4819 24.2694 37.4819 23.0461 38.1246L12.1765 43.8391C12.1478 43.854 12.1391 43.8588 12.1049 43.834C12.0707 43.8092 12.0723 43.7996 12.0778 43.7677L14.1537 31.664C14.3873 30.3021 13.936 28.9133 12.9465 27.9486L4.15324 19.377C4.13007 19.3542 4.12295 19.3476 4.13603 19.3074C4.14911 19.2673 4.15874 19.2659 4.19086 19.2611L16.3434 17.4952C17.7111 17.2965 18.8927 16.4382 19.5041 15.199L24.9389 4.18669C24.9534 4.15778 24.9575 4.14883 24.9997 4.14883C25.0419 4.14883 25.0463 4.15778 25.0605 4.18669L30.4953 15.199C31.107 16.4382 32.2883 17.2967 33.656 17.4952L45.8086 19.2611C45.8407 19.2659 45.8503 19.2673 45.8634 19.3074C45.8765 19.3476 45.8694 19.3545 45.8462 19.377L37.0525 27.9488C36.0632 28.9133 35.6119 30.3023 35.8452 31.6642Z" fill="#9BAFB3"/>
<path d="M35.8452 31.6642L37.9211 43.7677C37.9266 43.7998 37.9282 43.8095 37.894 43.8342C37.8599 43.859 37.8511 43.8544 37.8225 43.8393L26.9526 38.1246C25.7298 37.4819 24.2694 37.4819 23.0461 38.1246L12.1765 43.8391C12.1478 43.854 12.1391 43.8588 12.1049 43.834C12.0707 43.8092 12.0723 43.7996 12.0778 43.7677L14.1537 31.664C14.3873 30.3021 13.936 28.9133 12.9465 27.9486L4.15324 19.377C4.13007 19.3542 4.12295 19.3476 4.13603 19.3074C4.14911 19.2673 4.15874 19.2659 4.19086 19.2611L16.3434 17.4952C17.7111 17.2965 18.8927 16.4382 19.5041 15.199L24.9389 4.18669C24.9534 4.15778 24.9575 4.14883 24.9997 4.14883C25.0419 4.14883 25.0463 4.15778 25.0605 4.18669L30.4953 15.199C31.107 16.4382 32.2883 17.2967 33.656 17.4952L45.8086 19.2611C45.8407 19.2659 45.8503 19.2673 45.8634 19.3074C45.8765 19.3476 45.8694 19.3545 45.8462 19.377L37.0525 27.9488C36.0632 28.9133 35.6119 30.3023 35.8452 31.6642Z" fill="#9BAFB3"/>
</svg>
