<svg width="18" height="17" viewBox="0 0 18 17" fill="none" xmlns="http://www.w3.org/2000/svg">
<path d="M1.88246 11.8548L1.88256 11.8549C2.53372 12.5904 3.39699 13.0285 4.32084 13.0795L4.32083 13.0796H4.32634H4.3264H4.32646H4.32651H4.32657H4.32663H4.32669H4.32674H4.3268H4.32686H4.32692H4.32697H4.32703H4.32709H4.32714H4.3272H4.32726H4.32731H4.32737H4.32743H4.32748H4.32754H4.3276H4.32765H4.32771H4.32776H4.32782H4.32788H4.32793H4.32799H4.32804H4.3281H4.32816H4.32821H4.32827H4.32832H4.32838H4.32843H4.32849H4.32854H4.3286H4.32865H4.32871H4.32876H4.32882H4.32887H4.32893H4.32898H4.32904H4.32909H4.32915H4.3292H4.32925H4.32931H4.32936H4.32942H4.32947H4.32953H4.32958H4.32963H4.32969H4.32974H4.32979H4.32985H4.3299H4.32996H4.33001H4.33006H4.33012H4.33017H4.33022H4.33028H4.33033H4.33038H4.33044H4.33049H4.33054H4.33059H4.33065H4.3307H4.33075H4.33081H4.33086H4.33091H4.33096H4.33102H4.33107H4.33112H4.33117H4.33123H4.33128H4.33133H4.33138H4.33143H4.33149H4.33154H4.33159H4.33164H4.33169H4.33175H4.3318H4.33185H4.3319H4.33195H4.332H4.33206H4.33211H4.33216H4.33221H4.33226H4.33231H4.33236H4.33242H4.33247H4.33252H4.33257H4.33262H4.33267H4.33272H4.33277H4.33282H4.33288H4.33293H4.33298H4.33303H4.33308H4.33313H4.33318H4.33323H4.33328H4.33333H4.33338H4.33343H4.33348H4.33353H4.33358H4.33363H4.33368H4.33373H4.33379H4.33384H4.33389H4.33394H4.33399H4.33404H4.33409H4.33414H4.33419H4.33424H4.33429H4.33434H4.33439H4.33443H4.33448H4.33453H4.33458H4.33463H4.33468H4.33473H4.33478H4.33483H4.33488H4.33493H4.33498H4.33503H4.33508H4.33513H4.33518H4.33523H4.33528H4.33533H4.33538H4.33543H4.33547H4.33552H4.33557H4.33562H4.33567H4.33572H4.33577H4.33582H4.33587H4.33592H4.33597H4.33601H4.33606H4.33611H4.33616H4.33621H4.33626H4.33631H4.33636H4.33641H4.33645H4.3365H4.33655H4.3366H4.33665H4.3367H4.33675H4.3368H4.33684H4.33689H4.33694H4.33699H4.33704H4.33709H4.33714H4.33718H4.33723H4.33728H4.33733H4.33738H4.33743H4.33747H4.33752H4.33757H4.33762H4.33767H4.33772H4.33777H4.33781H4.33786H4.33791H4.33796H4.33801H4.33806H4.3381H4.33815H4.3382H4.33825H4.3383H4.33835H4.33839H4.33844H4.33849H4.33854H4.33859H4.33863H4.33868H4.33873H4.33878H4.33883H4.33888H4.33892H4.33897H4.33902H4.33907H4.33912H4.33917H4.33921H4.33926H4.33931H4.33936H4.33941H4.33945H4.3395H4.33955H4.3396H4.33965H4.3397H4.33974H4.33979H4.33984H4.33989H4.33994H4.33998H4.34003H4.34008H4.34013H4.34018H4.34023H4.34027H4.34032H4.34037H4.34042H4.34047H4.34052H4.34056H4.34061H4.34066H4.34071H4.34076H4.3408H4.34085H4.3409H4.34095H4.341H4.34105H4.34109H4.34114H4.34119H4.34124H4.34129H4.34134H4.34139H4.34143H4.34148H4.34153H4.34158H4.34163H4.34168H4.34172H4.34177H4.34182H4.34187H4.34192H4.34197H4.34202H4.34206H4.34211H4.34216H4.34221H4.34226H4.34231H4.34236H4.3424H4.34245H4.3425H4.34255H4.3426H4.34265H4.3427H4.34275H4.3428H4.34284H4.34289H4.34294H4.34299H4.34304H4.34309H4.34314H4.34319H4.34324H4.34329H4.34333H4.34338H4.34343H4.34348H4.34353H4.34358H4.34363H4.34368H4.34373H4.34378H4.34383H4.34388H4.34393H4.34397H4.34402H4.34407H4.34412H4.34417H4.34422H4.34427H4.34432H4.34437H4.34442H4.34447H4.34452H4.34457H4.34462H4.34467H4.34472H4.34477H4.34482H4.34487H4.34492H4.34497H4.34502H4.34507H4.34512H4.34517H4.34522H4.34527H4.34532H4.34537H4.34542H4.34547H4.34552H4.34557H4.34562H4.34567H4.34572H4.34577H4.34583H4.34588H4.34593H4.34598H4.34603H4.34608H4.34613H4.34618H4.34623H4.34628H4.34633H4.34638H4.34644H4.34649H4.34654H4.34659H4.34664H4.34669H4.34674H4.34679H4.34685H4.3469H4.34695H4.347H4.34705H4.3471H4.34716H4.34721H4.34726H4.34731H4.34736H4.34741H4.34747H4.34752H4.34757H4.34762H4.34768H4.34773H4.34778H4.34783H4.34788H4.34794H4.34799H4.34804H4.34809H4.34815H4.3482H4.34825H4.34831H4.34836H4.34841H4.34846H4.34852H4.34857H4.34862H4.34868H4.34873H4.34878H4.34884H4.34889H4.34894H4.349H4.34905H4.3491H4.34916H4.34921H4.34926H4.34932H4.34937H4.34943H4.34948H4.34953H4.34959H4.34964H4.3497H4.34975H4.34981H4.34986H4.34991H4.34997H4.35002H4.35008H4.35013H4.35019H4.35024H4.3503H4.35035H4.35041H4.35046H4.35052H4.35057H4.35063H4.35068H4.35074H4.35079H4.35085H4.35091H4.35096H4.35102H4.35107H4.35113H4.35118H4.35124H4.3513H4.35135H4.35141H4.35146H4.35152H4.35158H4.35163H4.35169H4.35175H4.3518H4.35186H4.35192H4.35197H4.35203H4.35209H4.35215H4.3522H4.35226H4.35232H4.35238H4.35243H4.35249H4.35255H4.35261H4.35266H7.18219C7.48418 13.0796 7.72636 12.8374 7.72636 12.5354C7.72636 12.2335 7.48418 11.9913 7.18219 11.9913H4.3689C3.08287 11.9108 1.98834 10.681 1.98834 9.28807C1.98834 8.39272 2.46937 7.55698 3.24479 7.10432C3.47545 6.97069 3.57077 6.69249 3.48289 6.44484L3.4829 6.44484L3.48242 6.44355C3.42094 6.27756 3.38994 6.10183 3.38994 5.91238C3.38994 5.05953 4.08546 4.36401 4.93831 4.36401C5.12118 4.36401 5.3002 4.39501 5.46619 4.45649L5.46675 4.4567C5.73225 4.55324 6.02635 4.43257 6.14725 4.17869L6.14743 4.17831C6.74616 2.9072 8.04011 2.08723 9.44582 2.08723C11.3356 2.08723 12.8947 3.50245 13.074 5.37902L13.074 5.37929C13.0982 5.62484 13.2834 5.82241 13.5252 5.86289C14.9386 6.10428 16.0117 7.41259 16.0117 8.9097C16.0117 10.4935 14.7654 11.8684 13.2355 11.988H10.8145C10.5125 11.988 10.2703 12.2302 10.2703 12.5322C10.2703 12.8341 10.5125 13.0763 10.8145 13.0763H13.2558H13.2559H13.2559H13.256H13.256H13.2561H13.2562H13.2562H13.2563H13.2563H13.2564H13.2564H13.2565H13.2566H13.2566H13.2567H13.2567H13.2568H13.2569H13.2569H13.257H13.257H13.2571H13.2571H13.2572H13.2573H13.2573H13.2574H13.2574H13.2575H13.2575H13.2576H13.2577H13.2577H13.2578H13.2578H13.2579H13.258H13.258H13.2581H13.2581H13.2582H13.2582H13.2583H13.2584H13.2584H13.2585H13.2585H13.2586H13.2586H13.2587H13.2588H13.2588H13.2589H13.2589H13.259H13.2591H13.2591H13.2592H13.2592H13.2593H13.2593H13.2594H13.2595H13.2595H13.2596H13.2596H13.2597H13.2598H13.2598H13.2599H13.2599H13.26H13.26H13.2601H13.2602H13.2602H13.2603H13.2603H13.2604H13.2604H13.2605H13.2606H13.2606H13.2607H13.2607H13.2608H13.2609H13.2609H13.261H13.261H13.2611H13.2611H13.2612H13.2613H13.2613H13.2614H13.2614H13.2615H13.2616H13.2616H13.2617H13.2617H13.2618H13.2619H13.2619H13.262H13.262H13.2621H13.2621H13.2622H13.2623H13.2623H13.2624H13.2624H13.2625H13.2626H13.2626H13.2627H13.2627H13.2628H13.2629H13.2629H13.263H13.263H13.2631H13.2631H13.2632H13.2633H13.2633H13.2634H13.2634H13.2635H13.2636H13.2636H13.2637H13.2637H13.2638H13.2639H13.2639H13.264H13.264H13.2641H13.2642H13.2642H13.2643H13.2643H13.2644H13.2644H13.2645H13.2646H13.2646H13.2647H13.2647H13.2648H13.2649H13.2649H13.265H13.265H13.2651H13.2652H13.2652H13.2653H13.2653H13.2654H13.2655H13.2655H13.2656H13.2656H13.2657H13.2658H13.2658H13.2659H13.2659H13.266H13.2661H13.2661H13.2662H13.2662H13.2663H13.2664H13.2664H13.2665H13.2665H13.2666H13.2667H13.2667H13.2668H13.2668H13.2669H13.267H13.267H13.2671H13.2671H13.2672H13.2673H13.2673H13.2674H13.2675H13.2675H13.2676H13.2676H13.2677H13.2678H13.2678H13.2679H13.2679H13.268H13.2681H13.2681H13.2682H13.2682H13.2683H13.2684H13.2684H13.2685H13.2685H13.2686H13.2687H13.2687H13.2688H13.2689H13.2689H13.269H13.269H13.2691H13.2692H13.2692H13.2693H13.2693H13.2694H13.2695H13.2695H13.2696H13.2697H13.2697H13.2698H13.2698H13.2699H13.27H13.27H13.2701H13.2702H13.2702H13.2703H13.2703H13.2704H13.2705H13.2705H13.2706H13.2707H13.2707H13.2708H13.2708H13.2709H13.271H13.271H13.2711H13.2712H13.2712H13.2713H13.2713H13.2714H13.2715H13.2715H13.2716H13.2717H13.2717H13.2718H13.2718H13.2719H13.272H13.272H13.2721H13.2722H13.2722H13.2723H13.2724H13.2724H13.2725H13.2725H13.2726H13.2727H13.2727H13.2728H13.2729H13.2729H13.273H13.2731H13.2731H13.2732H13.2732H13.2733H13.2734H13.2734H13.2735H13.2736H13.2736H13.2737H13.2738H13.2738H13.2739H13.274H13.274H13.2741H13.2741H13.2742H13.2743H13.2743H13.2744H13.2745H13.2745H13.2746H13.2747H13.2747H13.2748H13.2749H13.2749H13.275H13.2751H13.2751H13.2752H13.2753H13.2753H13.2754H13.2754H13.2755H13.2756H13.2756H13.2757H13.2758H13.2758H13.2759H13.276H13.276H13.2761H13.2762H13.2762H13.2763H13.2764H13.2764H13.2765H13.2766H13.2766H13.2767H13.2768H13.2768H13.2769H13.277H13.277H13.2771H13.2772H13.2772H13.2773H13.2774H13.2774H13.2775H13.2776H13.2776H13.2777H13.2778H13.2778H13.2779H13.278H13.278H13.2781H13.2782H13.2782H13.2783H13.2784H13.2785H13.2785H13.2786H13.2787H13.2787H13.2788H13.2789H13.2789H13.279H13.2791H13.2791H13.2792H13.2793H13.2793H13.2794H13.2795H13.2795H13.2796H13.2797H13.2798H13.2798H13.2799H13.28H13.28H13.2801H13.2802H13.2802H13.2803H13.2804H13.2804H13.2805H13.2806H13.2807H13.2807H13.2808H13.2809H13.2809H13.281H13.2811H13.2811H13.2812H13.2813H13.2814H13.2814H13.2815H13.2816H13.2816H13.2817H13.2818H13.2818H13.2819H13.282H13.2821H13.2821H13.2822H13.2823H13.2823H13.2824H13.2825H13.2826H13.2826H13.2827H13.2828H13.2828H13.2829H13.283H13.2831H13.2831H13.2832H13.2833H13.2833H13.2834H13.2835H13.2836H13.2836H13.2837H13.2838H13.2839H13.2839H13.284H13.2841H13.2841H13.2842H13.2843H13.2844H13.2844H13.2845H13.2846H13.2847H13.2847H13.2848H13.2849H13.2849H13.285H13.2851H13.2852H13.2852H13.2853H13.2854H13.2855H13.2855H13.2856H13.2857H13.2858H13.2858H13.2859H13.286H13.2861H13.2861H13.2862H13.2863H13.2864H13.2864H13.2865H13.2866H13.2867H13.2867H13.2868H13.2869H13.287H13.287H13.2871H13.2872H13.2873H13.2873H13.2874H13.2875H13.2876H13.2876H13.2877H13.2878H13.2879H13.2879H13.288H13.2881H13.2882H13.2882H13.2883H13.2884H13.2885H13.2886H13.2886H13.2887V13.0766L13.2959 13.0761C14.3257 13.0018 15.2871 12.5291 16.0014 11.7407C16.7123 10.9591 17.1 9.95463 17.1 8.9097V8.90953C17.0967 7.04179 15.8372 5.3768 14.1001 4.8883C13.9153 3.87439 13.406 2.95027 12.6357 2.24577C11.7618 1.44581 10.6256 1.00547 9.44253 1.00547C8.5285 1.00547 7.63776 1.26758 6.87462 1.76174C6.25932 2.15891 5.74476 2.69182 5.37387 3.31784C5.23179 3.29486 5.0852 3.28225 4.93831 3.28225C3.48477 3.28225 2.3016 4.46542 2.3016 5.91896C2.3016 6.08519 2.31762 6.24555 2.34469 6.40209C1.44462 7.08101 0.9 8.15166 0.9 9.29136C0.9 10.2277 1.24821 11.1362 1.88246 11.8548Z" fill="#9BAFB3" stroke="#9BAFB3" stroke-width="0.2"/>
<path d="M11.7374 9.78329C11.9508 9.56986 11.9508 9.22688 11.7374 9.01345L9.38495 6.66099C9.28472 6.56076 9.14443 6.5001 9.00168 6.5001C8.86094 6.5001 8.71968 6.55607 8.61775 6.66165L6.26594 9.01345C6.05251 9.22688 6.05251 9.56986 6.26594 9.78329C6.37014 9.88749 6.51069 9.94419 6.64922 9.94419C6.78575 9.94419 6.92732 9.89212 7.03312 9.78266L8.45751 8.35828V15.4506C8.45751 15.7526 8.69969 15.9948 9.00168 15.9948C9.30367 15.9948 9.54585 15.7526 9.54585 15.4506V8.35828L10.9702 9.78261C10.9703 9.78273 10.9704 9.78284 10.9705 9.78296C11.1812 9.99732 11.5245 9.99623 11.7374 9.78329Z" fill="#9BAFB3" stroke="#9BAFB3" stroke-width="0.2"/>
</svg>
