<svg width="21" height="21" viewBox="0 0 21 21" fill="none" xmlns="http://www.w3.org/2000/svg">
<path d="M12.2038 0.769125C11.9602 0.652925 11.6732 0.683725 11.4632 0.853125L4.6536 6.30052H1.4C0.6286 6.30052 0 6.92912 0 7.70052V13.3005C0 14.0719 0.6286 14.7005 1.4 14.7005H4.6536L11.4618 20.1479C11.5892 20.2487 11.7446 20.3005 11.9 20.3005C12.0036 20.3005 12.1072 20.2781 12.2038 20.2319C12.446 20.1143 12.6 19.8693 12.6 19.6005V1.40052C12.6 1.13172 12.446 0.886725 12.2038 0.769125ZM4.2 13.3005H1.4V7.70052H4.2V13.3005ZM11.2 18.1431L5.6 13.6631V7.33792L11.2 2.85792V18.1431Z" fill="#9BAFB3"/>
<path d="M16.1448 5.55015C15.869 5.27715 15.4266 5.28135 15.155 5.55575C14.8834 5.83155 14.8862 6.27395 15.1606 6.54555C16.2176 7.59135 16.8 8.99555 16.8 10.5005C16.8 12.0055 16.2176 13.4097 15.1606 14.4555C14.8848 14.7271 14.882 15.1695 15.155 15.4453C15.2922 15.5839 15.4728 15.6525 15.652 15.6525C15.8298 15.6525 16.0076 15.5853 16.1448 15.4495C17.4706 14.1405 18.2 12.3835 18.2 10.5005C18.2 8.61755 17.4706 6.86055 16.1448 5.55015Z" fill="#9BAFB3"/>
<path d="M18.1188 3.57766C17.8444 3.30606 17.4006 3.30746 17.129 3.58186C16.8574 3.85626 16.8588 4.30006 17.1332 4.57166C18.7236 6.14946 19.6 8.25506 19.6 10.5007C19.6 12.7463 18.7236 14.8519 17.1332 16.4297C16.8588 16.7013 16.8574 17.1451 17.129 17.4195C17.2662 17.5581 17.4454 17.6267 17.626 17.6267C17.8038 17.6267 17.9816 17.5595 18.1188 17.4237C19.9766 15.5813 21 13.1229 21 10.5007C21 7.87846 19.9766 5.42006 18.1188 3.57766Z" fill="#9BAFB3"/>
</svg>
