<svg width="74" height="21" viewBox="0 0 74 21" fill="none" xmlns="http://www.w3.org/2000/svg">
<mask id="path-1-outside-1" maskUnits="userSpaceOnUse" x="0.280548" y="3.82275" width="55" height="14" fill="black">
<rect fill="white" x="0.280548" y="3.82275" width="55" height="14"/>
<path d="M2.28054 5.82396C2.28054 5.82396 4.07339 12.8975 4.34841 14.0457C4.66941 15.386 5.24779 15.8792 6.91536 15.5466L7.99138 11.1606C8.2641 10.0711 8.44702 9.29442 8.62232 8.18617H8.65316C8.77634 9.30531 8.95173 10.0744 9.17616 11.1644C9.17616 11.1644 9.61418 13.1555 9.83849 14.2013C10.0634 15.2467 10.6893 15.9056 12.3227 15.5469L14.8866 5.82396H12.8165L11.9412 10.0277C11.7059 11.2513 11.4923 12.2074 11.3277 13.3268H11.2985C11.1489 12.2186 10.9586 11.3003 10.7193 10.1082L9.8079 5.82396H7.65112L6.67624 10.0002C6.40005 11.2693 6.14173 12.294 5.97746 13.3755H5.94771C5.77949 12.357 5.55542 11.0691 5.31279 9.84063C5.31279 9.84063 4.73359 6.85358 4.53038 5.82396L2.35038 5.82424L2.28054 5.82396ZM22.0836 5.82322V15.5462H24.0545V13.4816V5.82275L22.0836 5.82322ZM49.841 5.82322V12.996C49.841 13.985 50.0268 14.6778 50.4243 15.1011C50.7715 15.4713 51.3435 15.711 52.0288 15.711C52.6115 15.711 53.1848 15.6003 53.455 15.4995L53.4296 13.9565C53.2285 14.0061 52.9972 14.0458 52.6809 14.0458C52.0095 14.0458 51.7844 13.615 51.7844 12.727V9.98275H53.5008V8.12246H51.7844V5.82325L49.841 5.82322ZM17.6792 8.07721C16.4544 8.07721 15.4821 8.42174 14.9521 8.72857L15.34 10.0591C15.825 9.75277 16.5973 9.49917 17.3286 9.49917C18.5393 9.49605 18.7372 10.185 18.7372 10.6269V10.7314C16.0991 10.7274 14.4327 11.6419 14.4327 13.5062C14.4327 14.6444 15.281 15.711 16.7561 15.711C17.6641 15.711 18.4235 15.3482 18.8786 14.7669H18.9232C18.9232 14.7669 19.2246 16.0293 20.8849 15.5466C20.7977 15.0212 20.7694 14.461 20.7694 13.7862V11.1888C20.7694 9.53331 20.0638 8.07721 17.6792 8.07721ZM29.4686 8.07721C28.2353 8.07721 27.6811 8.70335 27.345 9.23459H27.3158V8.2421H25.435V15.5467H27.4163V11.2628C27.4163 11.062 27.4392 10.8496 27.5092 10.6649C27.6734 10.2336 28.0739 9.72908 28.7134 9.72908C29.5129 9.72908 29.887 10.4062 29.887 11.3834V15.5466H31.8662V11.2109C31.8662 11.0192 31.8924 10.7883 31.9487 10.6188C32.1114 10.1282 32.5432 9.72901 33.1377 9.72901C33.9481 9.72901 34.3371 10.3944 34.3371 11.5443V15.5466H36.3177V11.2444C36.3177 8.97557 35.1678 8.07725 33.8697 8.07725C33.2948 8.07725 32.841 8.22166 32.4307 8.47399C32.0859 8.68598 31.7772 8.98718 31.5074 9.38378H31.4782C31.1642 8.59657 30.428 8.07721 29.4686 8.07721ZM40.3486 8.07721C39.1241 8.07721 38.152 8.42174 37.6216 8.72857L38.0099 10.0591C38.4945 9.75277 39.2673 9.49917 39.9981 9.49917C41.208 9.49605 41.4064 10.185 41.4064 10.6269V10.7314C38.7687 10.7274 37.1021 11.6419 37.1021 13.5062C37.1021 14.6444 37.9508 15.711 39.4267 15.711C40.3339 15.711 41.0936 15.3482 41.5479 14.7669H41.5927C41.5927 14.7669 41.894 16.0293 43.5546 15.5466C43.4672 15.0212 43.4392 14.461 43.4392 13.7862V11.1888C43.4392 9.53331 42.7335 8.07721 40.3486 8.07721ZM48.5766 8.07721C47.8179 8.07721 46.9547 8.56785 46.5924 9.61963H46.537V8.242H44.7534V15.5466H46.7867V11.8062C46.7867 11.6044 46.7989 11.4284 46.8308 11.2671C46.9811 10.4836 47.5793 9.98272 48.4379 9.98272C48.6736 9.98272 48.8422 10.0083 49.0247 10.0347V8.12239C48.8717 8.09142 48.767 8.07721 48.5766 8.07721ZM18.8008 12.0258V12.937C18.8008 13.0718 18.7891 13.2109 18.7519 13.3325C18.5993 13.8386 18.076 14.2663 17.4218 14.2663C16.8764 14.2663 16.4431 13.9561 16.4431 13.3001C16.4431 12.2966 17.5457 12.0192 18.8008 12.0258ZM41.4703 12.0258V12.937C41.4703 13.0718 41.4583 13.2109 41.4213 13.3325C41.2687 13.8386 40.7456 14.2663 40.0914 14.2663C39.5459 14.2663 39.1125 13.9561 39.1125 13.3001C39.1125 12.2966 40.2151 12.0192 41.4703 12.0258Z"/>
</mask>
<path d="M2.28054 5.82396C2.28054 5.82396 4.07339 12.8975 4.34841 14.0457C4.66941 15.386 5.24779 15.8792 6.91536 15.5466L7.99138 11.1606C8.2641 10.0711 8.44702 9.29442 8.62232 8.18617H8.65316C8.77634 9.30531 8.95173 10.0744 9.17616 11.1644C9.17616 11.1644 9.61418 13.1555 9.83849 14.2013C10.0634 15.2467 10.6893 15.9056 12.3227 15.5469L14.8866 5.82396H12.8165L11.9412 10.0277C11.7059 11.2513 11.4923 12.2074 11.3277 13.3268H11.2985C11.1489 12.2186 10.9586 11.3003 10.7193 10.1082L9.8079 5.82396H7.65112L6.67624 10.0002C6.40005 11.2693 6.14173 12.294 5.97746 13.3755H5.94771C5.77949 12.357 5.55542 11.0691 5.31279 9.84063C5.31279 9.84063 4.73359 6.85358 4.53038 5.82396L2.35038 5.82424L2.28054 5.82396ZM22.0836 5.82322V15.5462H24.0545V13.4816V5.82275L22.0836 5.82322ZM49.841 5.82322V12.996C49.841 13.985 50.0268 14.6778 50.4243 15.1011C50.7715 15.4713 51.3435 15.711 52.0288 15.711C52.6115 15.711 53.1848 15.6003 53.455 15.4995L53.4296 13.9565C53.2285 14.0061 52.9972 14.0458 52.6809 14.0458C52.0095 14.0458 51.7844 13.615 51.7844 12.727V9.98275H53.5008V8.12246H51.7844V5.82325L49.841 5.82322ZM17.6792 8.07721C16.4544 8.07721 15.4821 8.42174 14.9521 8.72857L15.34 10.0591C15.825 9.75277 16.5973 9.49917 17.3286 9.49917C18.5393 9.49605 18.7372 10.185 18.7372 10.6269V10.7314C16.0991 10.7274 14.4327 11.6419 14.4327 13.5062C14.4327 14.6444 15.281 15.711 16.7561 15.711C17.6641 15.711 18.4235 15.3482 18.8786 14.7669H18.9232C18.9232 14.7669 19.2246 16.0293 20.8849 15.5466C20.7977 15.0212 20.7694 14.461 20.7694 13.7862V11.1888C20.7694 9.53331 20.0638 8.07721 17.6792 8.07721ZM29.4686 8.07721C28.2353 8.07721 27.6811 8.70335 27.345 9.23459H27.3158V8.2421H25.435V15.5467H27.4163V11.2628C27.4163 11.062 27.4392 10.8496 27.5092 10.6649C27.6734 10.2336 28.0739 9.72908 28.7134 9.72908C29.5129 9.72908 29.887 10.4062 29.887 11.3834V15.5466H31.8662V11.2109C31.8662 11.0192 31.8924 10.7883 31.9487 10.6188C32.1114 10.1282 32.5432 9.72901 33.1377 9.72901C33.9481 9.72901 34.3371 10.3944 34.3371 11.5443V15.5466H36.3177V11.2444C36.3177 8.97557 35.1678 8.07725 33.8697 8.07725C33.2948 8.07725 32.841 8.22166 32.4307 8.47399C32.0859 8.68598 31.7772 8.98718 31.5074 9.38378H31.4782C31.1642 8.59657 30.428 8.07721 29.4686 8.07721ZM40.3486 8.07721C39.1241 8.07721 38.152 8.42174 37.6216 8.72857L38.0099 10.0591C38.4945 9.75277 39.2673 9.49917 39.9981 9.49917C41.208 9.49605 41.4064 10.185 41.4064 10.6269V10.7314C38.7687 10.7274 37.1021 11.6419 37.1021 13.5062C37.1021 14.6444 37.9508 15.711 39.4267 15.711C40.3339 15.711 41.0936 15.3482 41.5479 14.7669H41.5927C41.5927 14.7669 41.894 16.0293 43.5546 15.5466C43.4672 15.0212 43.4392 14.461 43.4392 13.7862V11.1888C43.4392 9.53331 42.7335 8.07721 40.3486 8.07721ZM48.5766 8.07721C47.8179 8.07721 46.9547 8.56785 46.5924 9.61963H46.537V8.242H44.7534V15.5466H46.7867V11.8062C46.7867 11.6044 46.7989 11.4284 46.8308 11.2671C46.9811 10.4836 47.5793 9.98272 48.4379 9.98272C48.6736 9.98272 48.8422 10.0083 49.0247 10.0347V8.12239C48.8717 8.09142 48.767 8.07721 48.5766 8.07721ZM18.8008 12.0258V12.937C18.8008 13.0718 18.7891 13.2109 18.7519 13.3325C18.5993 13.8386 18.076 14.2663 17.4218 14.2663C16.8764 14.2663 16.4431 13.9561 16.4431 13.3001C16.4431 12.2966 17.5457 12.0192 18.8008 12.0258ZM41.4703 12.0258V12.937C41.4703 13.0718 41.4583 13.2109 41.4213 13.3325C41.2687 13.8386 40.7456 14.2663 40.0914 14.2663C39.5459 14.2663 39.1125 13.9561 39.1125 13.3001C39.1125 12.2966 40.2151 12.0192 41.4703 12.0258Z" fill="#007DC6"/>
<path d="M2.28054 5.82396C2.28054 5.82396 4.07339 12.8975 4.34841 14.0457C4.66941 15.386 5.24779 15.8792 6.91536 15.5466L7.99138 11.1606C8.2641 10.0711 8.44702 9.29442 8.62232 8.18617H8.65316C8.77634 9.30531 8.95173 10.0744 9.17616 11.1644C9.17616 11.1644 9.61418 13.1555 9.83849 14.2013C10.0634 15.2467 10.6893 15.9056 12.3227 15.5469L14.8866 5.82396H12.8165L11.9412 10.0277C11.7059 11.2513 11.4923 12.2074 11.3277 13.3268H11.2985C11.1489 12.2186 10.9586 11.3003 10.7193 10.1082L9.8079 5.82396H7.65112L6.67624 10.0002C6.40005 11.2693 6.14173 12.294 5.97746 13.3755H5.94771C5.77949 12.357 5.55542 11.0691 5.31279 9.84063C5.31279 9.84063 4.73359 6.85358 4.53038 5.82396L2.35038 5.82424L2.28054 5.82396ZM22.0836 5.82322V15.5462H24.0545V13.4816V5.82275L22.0836 5.82322ZM49.841 5.82322V12.996C49.841 13.985 50.0268 14.6778 50.4243 15.1011C50.7715 15.4713 51.3435 15.711 52.0288 15.711C52.6115 15.711 53.1848 15.6003 53.455 15.4995L53.4296 13.9565C53.2285 14.0061 52.9972 14.0458 52.6809 14.0458C52.0095 14.0458 51.7844 13.615 51.7844 12.727V9.98275H53.5008V8.12246H51.7844V5.82325L49.841 5.82322ZM17.6792 8.07721C16.4544 8.07721 15.4821 8.42174 14.9521 8.72857L15.34 10.0591C15.825 9.75277 16.5973 9.49917 17.3286 9.49917C18.5393 9.49605 18.7372 10.185 18.7372 10.6269V10.7314C16.0991 10.7274 14.4327 11.6419 14.4327 13.5062C14.4327 14.6444 15.281 15.711 16.7561 15.711C17.6641 15.711 18.4235 15.3482 18.8786 14.7669H18.9232C18.9232 14.7669 19.2246 16.0293 20.8849 15.5466C20.7977 15.0212 20.7694 14.461 20.7694 13.7862V11.1888C20.7694 9.53331 20.0638 8.07721 17.6792 8.07721ZM29.4686 8.07721C28.2353 8.07721 27.6811 8.70335 27.345 9.23459H27.3158V8.2421H25.435V15.5467H27.4163V11.2628C27.4163 11.062 27.4392 10.8496 27.5092 10.6649C27.6734 10.2336 28.0739 9.72908 28.7134 9.72908C29.5129 9.72908 29.887 10.4062 29.887 11.3834V15.5466H31.8662V11.2109C31.8662 11.0192 31.8924 10.7883 31.9487 10.6188C32.1114 10.1282 32.5432 9.72901 33.1377 9.72901C33.9481 9.72901 34.3371 10.3944 34.3371 11.5443V15.5466H36.3177V11.2444C36.3177 8.97557 35.1678 8.07725 33.8697 8.07725C33.2948 8.07725 32.841 8.22166 32.4307 8.47399C32.0859 8.68598 31.7772 8.98718 31.5074 9.38378H31.4782C31.1642 8.59657 30.428 8.07721 29.4686 8.07721ZM40.3486 8.07721C39.1241 8.07721 38.152 8.42174 37.6216 8.72857L38.0099 10.0591C38.4945 9.75277 39.2673 9.49917 39.9981 9.49917C41.208 9.49605 41.4064 10.185 41.4064 10.6269V10.7314C38.7687 10.7274 37.1021 11.6419 37.1021 13.5062C37.1021 14.6444 37.9508 15.711 39.4267 15.711C40.3339 15.711 41.0936 15.3482 41.5479 14.7669H41.5927C41.5927 14.7669 41.894 16.0293 43.5546 15.5466C43.4672 15.0212 43.4392 14.461 43.4392 13.7862V11.1888C43.4392 9.53331 42.7335 8.07721 40.3486 8.07721ZM48.5766 8.07721C47.8179 8.07721 46.9547 8.56785 46.5924 9.61963H46.537V8.242H44.7534V15.5466H46.7867V11.8062C46.7867 11.6044 46.7989 11.4284 46.8308 11.2671C46.9811 10.4836 47.5793 9.98272 48.4379 9.98272C48.6736 9.98272 48.8422 10.0083 49.0247 10.0347V8.12239C48.8717 8.09142 48.767 8.07721 48.5766 8.07721ZM18.8008 12.0258V12.937C18.8008 13.0718 18.7891 13.2109 18.7519 13.3325C18.5993 13.8386 18.076 14.2663 17.4218 14.2663C16.8764 14.2663 16.4431 13.9561 16.4431 13.3001C16.4431 12.2966 17.5457 12.0192 18.8008 12.0258ZM41.4703 12.0258V12.937C41.4703 13.0718 41.4583 13.2109 41.4213 13.3325C41.2687 13.8386 40.7456 14.2663 40.0914 14.2663C39.5459 14.2663 39.1125 13.9561 39.1125 13.3001C39.1125 12.2966 40.2151 12.0192 41.4703 12.0258Z" stroke="#142F34" stroke-width="3" mask="url(#path-1-outside-1)"/>
<path d="M56.9157 6.49634L56.2664 6.12092C56.0399 6.51267 55.9288 6.95628 55.964 7.37742C55.9988 7.79424 56.1918 8.26492 56.6505 8.53073L56.6793 8.54741L56.7095 8.56148L60.6914 10.4193L60.7186 10.432L60.7466 10.4424C61.1292 10.585 61.5041 10.4953 61.7733 10.3513C62.0482 10.2043 62.2787 9.97111 62.4392 9.69431C62.442 9.68941 62.4448 9.68452 62.4475 9.67963C62.6035 9.40493 62.6888 9.09253 62.6789 8.78402C62.669 8.47673 62.5576 8.10592 62.2402 7.84613L62.2189 7.82869L62.1964 7.81286L58.6 5.28572L58.5733 5.267L58.5452 5.25066C58.3564 5.1411 58.1537 5.08661 57.9545 5.07541L57.9368 5.0713L57.8421 5.07355C57.1702 5.08952 56.5896 5.55955 56.2657 6.12214L56.9157 6.49634ZM56.9157 6.49634C57.1544 6.08174 57.5296 5.83119 57.86 5.82334L61.7908 9.31743C61.5951 9.65533 61.2573 9.83232 61.0085 9.73962L57.0266 7.88181C56.6531 7.66537 56.5965 7.04842 56.9157 6.49634ZM64.1772 1.55724L64.1747 1.55713H64.1569C63.7057 1.55713 63.2663 1.68223 62.9193 1.92344C62.5752 2.16258 62.2649 2.56574 62.2649 3.09645V3.12944L62.2678 3.1623L62.6542 7.54577L62.6566 7.57276L62.6609 7.5995C62.7264 8.005 62.9919 8.28729 63.2526 8.44958C63.5186 8.61513 63.8371 8.69772 64.1573 8.69772L64.1583 8.69772C64.4783 8.6973 64.7965 8.61471 65.0623 8.44921C65.323 8.28686 65.5871 8.00546 65.6537 7.6021L65.6583 7.57423L65.6608 7.54608L66.0491 3.16261L66.052 3.12959V3.09645C66.052 2.56483 65.7404 2.1617 65.3962 1.92301C65.0538 1.68559 64.6218 1.56078 64.1772 1.55724ZM70.4729 5.07359L70.4717 5.07355C70.2371 5.06797 69.9932 5.12044 69.7687 5.25092L69.7409 5.26711L69.7145 5.28563L66.1176 7.81278L66.0942 7.82924L66.0721 7.84745C65.756 8.10766 65.6458 8.47808 65.636 8.78405C65.626 9.09665 65.7135 9.41364 65.8735 9.69147L65.9234 9.77825L65.9337 9.78848C66.0896 10.0234 66.2977 10.2209 66.5408 10.3511C66.81 10.4953 67.1847 10.5849 67.5673 10.4424L67.5953 10.4319L67.6224 10.4193L71.6062 8.56158L71.6358 8.54777L71.6641 8.53144C72.1249 8.26548 72.3176 7.79363 72.3521 7.37677C72.3868 6.95607 72.2756 6.51344 72.0513 6.12288L72.0502 6.12092C71.7263 5.56082 71.148 5.09249 70.4791 5.07375L70.4791 5.07373L70.4729 5.07359ZM62.2442 13.5237C62.3581 13.4293 62.4454 13.3206 62.5108 13.2057L62.8206 13.3468C62.7447 13.4688 62.6874 13.6099 62.6615 13.7704L62.6572 13.7972L62.6548 13.8242L62.2684 18.2075L62.2655 18.2404V18.2734C62.2655 18.8042 62.5755 19.2075 62.92 19.4468C63.2672 19.688 63.7065 19.8127 64.1575 19.8127C64.6087 19.8127 65.0484 19.6881 65.3959 19.4472C65.7406 19.2082 66.0516 18.8049 66.0516 18.2734V18.2403L66.0487 18.2074L65.6614 13.8241L65.6589 13.7958L65.6542 13.7678C65.6321 13.6341 65.5883 13.5139 65.5302 13.407L65.8327 13.2517C65.894 13.349 65.9719 13.4409 66.0696 13.5223L66.0934 13.5422L66.1187 13.56L69.7156 16.0852L69.7423 16.1039L69.7705 16.1203C70.2315 16.3874 70.737 16.317 71.1142 16.1385C71.4955 15.9582 71.8232 15.6406 72.0494 15.2509L72.0512 15.2477C72.2754 14.8569 72.3865 14.4142 72.3518 13.9934C72.3174 13.5764 72.1249 13.1049 71.665 12.8383L71.636 12.8216L71.6057 12.8074L67.9406 11.0997L68.4449 10.2254L67.2162 10.8558L67.1481 10.8568C66.5793 10.8645 66.1183 11.2551 65.8733 11.6798L65.1311 12.9667C65.1081 12.9506 65.0851 12.9353 65.062 12.921C64.7962 12.7559 64.4783 12.6738 64.1588 12.6734H64.1578H64.1564H64.1563V13.4046L64.1555 12.6734C63.8362 12.6738 63.5184 12.7561 63.2529 12.9213C63.2297 12.9357 63.2065 12.951 63.1834 12.9673L62.443 11.6804C62.1978 11.2543 61.7359 10.8645 61.1675 10.8567L60.967 10.854L59.9642 10.3971L60.3722 11.101L56.7103 12.8074L56.6793 12.8218L56.6498 12.839C56.1921 13.1054 55.9993 13.5757 55.9645 13.9927C55.9293 14.4139 56.0404 14.8576 56.2668 15.2495L56.2668 15.2495C56.4922 15.6398 56.8196 15.9578 57.2009 16.1384C57.5785 16.3171 58.0837 16.3871 58.5446 16.1205L58.5731 16.104L58.6 16.0851L62.1967 13.5599L62.2212 13.5427L62.2442 13.5237ZM62.5274 9.17618L62.5272 9.17529L62.527 9.17428C62.5271 9.17479 62.5272 9.17545 62.5274 9.17618Z" fill="#FFC220" stroke="#142F34" stroke-width="1.5"/>
</svg>
