<svg width="75" height="32" viewBox="0 0 75 32" fill="none" xmlns="http://www.w3.org/2000/svg">
<path d="M19.2225 19.6844L19.969 19.7572L20.0493 18.9344H19.2225H15.5677H15.0063L14.8497 19.4674C14.8494 19.4684 14.8489 19.47 14.8482 19.4721C14.8452 19.4809 14.839 19.4983 14.8292 19.5231C14.8095 19.5727 14.7755 19.6513 14.7235 19.7492C14.6191 19.9455 14.4447 20.2148 14.1713 20.4861C13.6404 21.0128 12.6821 21.6026 10.9733 21.6026C8.52407 21.6026 6.78269 20.1594 6.44636 18.0806H19.6047H20.3547V17.3306V15.4915C20.3547 13.9001 19.8513 11.8692 18.4095 10.2249C16.9481 8.55834 14.5954 7.37207 11.0688 7.37207C8.51379 7.37207 6.05832 7.90994 4.22872 9.36637C2.36804 10.8475 1.27332 13.1827 1.27332 16.5079C1.27332 19.1382 2.00477 21.397 3.69173 22.9901C5.3716 24.5766 7.87967 25.3896 11.1962 25.3896C15.1487 25.3896 17.3779 24.0819 18.6069 22.6506C19.2106 21.9476 19.5489 21.242 19.7367 20.7072C19.8307 20.4396 19.8876 20.2133 19.9215 20.0488C19.9385 19.9665 19.9498 19.8994 19.9571 19.8501C19.9608 19.8254 19.9635 19.8051 19.9654 19.7895L19.9677 19.7697L19.9684 19.7625L19.9687 19.7596L19.9689 19.7584C19.9689 19.7578 19.969 19.7572 19.2225 19.6844ZM18.4766 19.6062C18.4767 19.6056 18.4766 19.6061 18.4764 19.6077L18.4766 19.6062ZM10.9414 11.2226C12.2673 11.2226 13.3192 11.6262 14.0306 12.2696C14.5753 12.7623 14.9529 13.4241 15.0961 14.2332H6.54705C6.9512 12.3721 8.84837 11.2226 10.9414 11.2226Z" fill="#E53238" stroke="#142F34" stroke-width="1.5"/>
<path d="M19.6022 1.27344H18.8522V2.02344V21.4769C18.8522 22.0146 18.8328 22.6671 18.8132 23.1901C18.8034 23.4506 18.7936 23.6769 18.7863 23.8379C18.7826 23.9184 18.7795 23.9826 18.7774 24.0265L18.7749 24.0766L18.7743 24.0894L18.7742 24.0925L18.7741 24.0932L18.7741 24.0934L18.7741 24.0934L18.7339 24.8816H19.5231H23.0091H23.6795L23.7544 24.2153L23.0091 24.1316L23.7544 24.2152L23.7544 24.2151L23.7544 24.2148L23.7545 24.2139L23.7549 24.2109L23.7561 24.2001L23.7603 24.1604C23.7639 24.1262 23.769 24.0767 23.7751 24.0145C23.7829 23.9338 23.7925 23.8315 23.8026 23.7127C23.9159 23.7977 24.0373 23.8837 24.167 23.9695C25.3005 24.719 27.0447 25.4375 29.5395 25.4375C32.1833 25.4375 34.4524 24.5188 36.0617 22.897C37.6703 21.2759 38.5706 19.002 38.5706 16.381C38.5706 13.9366 37.7427 11.6906 36.1747 10.0506C34.6013 8.4049 32.3305 7.41988 29.5474 7.41988C26.9711 7.41988 25.2315 8.11626 24.1187 8.85544C24.0497 8.90124 23.9833 8.94712 23.9194 8.9929V2.02344V1.27344H23.1694H19.6022ZM28.6477 11.326C30.1264 11.326 31.2907 11.8679 32.0902 12.7385C32.8958 13.6157 33.3759 14.8769 33.3759 16.381C33.3759 19.5619 31.2245 21.5313 28.6715 21.5313C27.0968 21.5313 25.9313 20.9262 25.1491 20.0154C24.355 19.0907 23.9194 17.8055 23.9194 16.4128C23.9194 15.1153 24.3113 13.8337 25.0831 12.8916C25.8386 11.9695 26.9933 11.326 28.6477 11.326Z" fill="#0064D2" stroke="#142F34" stroke-width="1.5"/>
<path d="M37.835 13.5732V12.8232C37.835 12.3671 37.9916 10.9838 39.2089 9.7113C40.4389 8.42552 42.6371 7.37207 46.4839 7.37207C48.3237 7.37207 50.4009 7.63887 52.0397 8.63788C53.7405 9.67468 54.878 11.4455 54.878 14.201V21.8602C54.878 22.2759 54.9082 22.8221 54.9398 23.276C54.9555 23.5004 54.9711 23.6979 54.9829 23.839C54.9887 23.9096 54.9936 23.9659 54.997 24.0045L55.0009 24.0484L55.0019 24.0594L55.0021 24.0621L55.0022 24.0626L37.835 13.5732ZM37.835 13.5732H38.585M37.835 13.5732H38.585M38.585 13.5732H42.2796H42.9707M38.585 13.5732H42.9707M42.9707 13.5732L43.0263 12.8949M42.9707 13.5732L43.0263 12.8949M43.0263 12.8949C43.0269 12.89 43.0285 12.8799 43.0314 12.8653C43.0381 12.8309 43.0517 12.7729 43.0773 12.6989C43.1285 12.5511 43.2261 12.3444 43.4103 12.134C43.758 11.7367 44.5214 11.2068 46.2291 11.2068C47.3481 11.2068 48.2649 11.464 48.8791 11.8953C49.4653 12.3069 49.8107 12.896 49.8107 13.7126V13.725H46.2291C43.3044 13.725 40.9515 14.1475 39.3052 15.0882C37.5994 16.0629 36.6884 17.5781 36.6884 19.5573C36.6884 21.4696 37.5027 22.9864 38.87 24.0026C40.2126 25.0004 42.0366 25.481 44.0433 25.481C46.7771 25.481 48.6327 24.725 49.8209 23.9285C49.9519 23.8407 50.0744 23.7526 50.1887 23.6654C50.1961 23.7943 50.2031 23.9041 50.2088 23.9893C50.2131 24.0522 50.2166 24.1017 50.2191 24.1359L50.222 24.1753L50.2228 24.1859L50.2231 24.1888L50.2231 24.1896L50.2231 24.1899L50.2231 24.19L50.9709 24.1314L43.0263 12.8949ZM43.8991 17.8518C45.3194 17.5501 47.3218 17.5161 49.8107 17.5125V17.7785C49.8107 18.3182 49.6376 19.2903 48.9662 20.112C48.3213 20.9012 47.1368 21.6502 44.9113 21.6502C43.7065 21.6502 42.954 21.3506 42.5151 20.9789C42.0878 20.6171 41.883 20.1255 41.883 19.5573C41.883 19.0609 42.0417 18.7505 42.3128 18.5118C42.6178 18.2433 43.124 18.0164 43.8991 17.8518Z" fill="#F5AF02" stroke="#142F34" stroke-width="1.5"/>
<path d="M52.1384 8.00781H50.8874L51.4769 9.11124L59.4655 24.0633L56.5237 29.6259L55.9417 30.7265H57.1867H61.1362H61.5952L61.804 30.3178L72.6446 9.09903L73.2021 8.00781H71.9767H68.2115H67.7477L67.5405 8.42275L62.2593 18.9991L56.9656 8.42214L56.7582 8.00781H56.2949H52.1384Z" fill="#86B817" stroke="#142F34" stroke-width="1.5"/>
</svg>
