<svg width="75" height="23" viewBox="0 0 75 23" fill="none" xmlns="http://www.w3.org/2000/svg">
<path d="M11.7508 19.8556L12.3752 19.7496V19.1162V2V1.25H11.6252H8.65082H7.90082V2V8.19413L5.51156 1.73964L5.33031 1.25H4.8082H2H1.25V2V20.2955V21.1606L2.10637 21.0379C2.20399 21.0239 2.30104 21.0099 2.39767 20.996C3.29409 20.8672 4.15357 20.7436 5.08723 20.6486L5.7613 20.58V19.9024V14.2922L7.685 19.7411L7.88681 20.3127L8.48805 20.2353C8.92172 20.1794 9.34769 20.1378 9.78208 20.0953C9.88875 20.0849 9.99593 20.0744 10.1039 20.0636C10.6444 20.0098 11.1972 19.9496 11.7508 19.8556ZM18.8584 14.9666C18.6365 14.9815 18.4153 14.9965 18.1947 15.0111V12.2816C19.1771 12.2551 20.3492 12.255 21.3983 12.255H22.1483V11.505V8.64638V7.89638H21.3983C20.8757 7.89638 20.1861 7.90934 19.4922 7.92238L19.4421 7.92332C19.016 7.93133 18.5893 7.93926 18.1947 7.94436V5.60867H22.673H23.423V4.85867V2V1.25H22.673H14.4887H13.7387V2V18.8839V19.6934L14.5459 19.6317L22.7301 19.0062L23.423 18.9533V18.2584V15.5071V14.7338L22.6501 14.7574C21.3781 14.7963 20.1087 14.8821 18.8584 14.9666ZM33.6653 5.60874H34.4153L34.4153 4.85877L34.4154 2.00004L34.4155 1.25H33.6654H24.576H23.826V2V4.85874V5.60874H24.576H26.8928V18.0442V18.8225L27.6706 18.7937C28.6147 18.7587 29.5982 18.7586 30.5986 18.7586H31.3486V18.0086V5.60874H33.6653ZM43.2646 8.50352V7.75352H42.5146H39.2186V5.60867H43.8263H44.5763V4.85867V2V1.25H43.8263H35.5679H34.8179V2V17.8478V18.5978H35.5679H38.4686H39.2186V17.8478V12.1121H42.5146H43.2646V11.3621V8.50352ZM54.4047 15.5965V14.8861L53.6954 14.8476C53.2596 14.8239 52.8165 14.7975 52.3685 14.7708C51.3865 14.7122 50.3812 14.6523 49.3796 14.6173V2V1.25H48.6296H45.6738H44.9238V2V18.0442V18.7794L45.6588 18.7941C48.3383 18.8474 50.9651 19.007 53.6091 19.1681L54.4047 19.2165V18.4194V15.5965ZM55.3988 18.616V19.3245L56.1061 19.3648L56.2557 19.3733C57.1568 19.4245 58.0791 19.4769 58.9662 19.5757L59.7992 19.6685V18.8303V2V1.25H59.0492H56.1488H55.3988V2V18.616ZM72.6887 2.29687L73.14 1.25H72H68.7669H68.2733L68.0781 1.70342L66.7201 4.85765L65.4534 1.71929L65.2639 1.25H64.7579H61.5804H60.4728L60.884 2.27846L64.2015 10.5751L60.5282 18.6631L60.1104 19.583L61.1119 19.7167C61.5681 19.7775 62.0192 19.8228 62.4551 19.8665C62.5453 19.8756 62.6349 19.8846 62.7237 19.8936C63.2478 19.947 63.7544 20.0032 64.2652 20.0884L64.838 20.184L65.0739 19.6534L66.5149 16.4135L67.9785 20.0569L68.1365 20.4503L68.5551 20.5177C68.8255 20.5613 69.0982 20.6064 69.3726 20.6517C70.2076 20.7897 71.058 20.9302 71.9041 21.0393L73.1593 21.2011L72.6985 20.0224L69.0603 10.715L72.6887 2.29687Z" fill="#D81F26" stroke="#142F34" stroke-width="1.5"/>
</svg>
